<?xml version="1.0" encoding="UTF-8" standalone="no" ?>
<!DOCTYPE svg PUBLIC "-//W3C//DTD SVG 1.1//EN" "http://www.w3.org/Graphics/SVG/1.1/DTD/svg11.dtd">
<svg xmlns="http://www.w3.org/2000/svg" xmlns:xlink="http://www.w3.org/1999/xlink" version="1.1" width="1000" height="1000" viewBox="0 0 500 500" xml:space="preserve">
<desc>Created with Fabric.js 4.6.0</desc>
<defs>
</defs>
<g transform="matrix(2.2 0 0 2.2 1494.53 250)" id="ahRGIqb2bmB7h6kO6STLO"  >
<g style="" vector-effect="non-scaling-stroke"   >
		<g transform="matrix(1 0 0 1 -297.42 -10.24)" id="f0thySPXM-FJ6tbCOr701"  >
<path style="stroke: none; stroke-width: 1; stroke-dasharray: none; stroke-linecap: butt; stroke-dashoffset: 0; stroke-linejoin: miter; stroke-miterlimit: 4; fill: rgb(231,29,54); fill-rule: nonzero; opacity: 1;" vector-effect="non-scaling-stroke"  transform=" translate(-370.85, -91.09)" d="M 394.91 26.8022 L 372.5593 75.2294 C 372.251522072736 75.89627989398811 371.58407671543523 76.32334049020368 370.8496 76.32334049020368 C 370.1151232845648 76.32334049020368 369.447677927264 75.89627989398811 369.1399 75.2294 L 346.789 26.8022 C 346.48114511789566 26.135254422432396 345.81356859584474 25.708200646133264 345.079 25.708299999999998 L 305.5562 25.708299999999998 C 304.51624781606864 25.70830000000001 303.6732 26.55134781606862 303.6732 27.591299999999997 L 303.6732 156.4756 C 305.34239732574713 156.29385042555856 306.94901344809085 155.7375510473666 308.3732 154.8482 C 310.63035553741616 153.61418298365723 312.80795679368515 152.2399228779563 314.8932 150.7335 Q 318.38 148.2394 321.94379999999995 145.1813 Q 325.5078 142.1135 328.46599999999995 139.3413 C 330.186131297262 137.75141057120013 331.8061644771309 136.05653418286903 333.31679999999994 134.2664 C 334.2226427707385 133.33913848403196 334.92056421174897 132.2295480486562 335.36409999999995 131.01149999999998 L 335.5165999999999 131.01149999999998 L 335.5165999999999 86.8322 C 335.51662372173024 85.94637800868769 336.13406122793185 85.18034812241078 336.99967357811045 84.99221024724058 C 337.865285928289 84.80407237207038 338.7449872349037 85.24470427272475 339.1126999999999 86.0506 L 359.19049999999993 130.0569 L 359.62659999999994 131.01170000000002 L 382.07 131.01170000000002 L 382.5061 130.0569 L 402.584 86.0506 C 402.95163520488705 85.24462580398831 403.83136624256224 84.8039181263694 404.6970158112317 84.99206932294116 C 405.56266537990115 85.18022051951293 406.1800896378297 85.94633881421856 406.18 86.8322 L 406.18 129.1287 C 406.18 130.16865218393139 407.0230478160686 131.01170000000002 408.063 131.01170000000002 L 436.143 131.01170000000002 C 436.6424107812306 131.0117265241938 437.12137461044784 130.81334811145567 437.47451136095174 130.46021136095177 C 437.82764811145563 130.10707461044788 438.0260265241937 129.62811078123062 438.02599999999995 129.1287 L 438.02599999999995 27.5913 C 438.02599999999995 26.551347816068624 437.1829521839314 25.708300000000012 436.143 25.7083 L 396.62 25.7083 C 395.88543140415527 25.708200646133267 395.21785488210435 26.135254422432396 394.91 26.8022 Z" stroke-linecap="round" />
</g>
		<g transform="matrix(1 0 0 1 -165.49 -22.98)" id="xFu-EUFQpu61sqty5HUIM"  >
<path style="stroke: none; stroke-width: 1; stroke-dasharray: none; stroke-linecap: butt; stroke-dashoffset: 0; stroke-linejoin: miter; stroke-miterlimit: 4; fill: rgb(231,29,54); fill-rule: nonzero; opacity: 1;" vector-effect="non-scaling-stroke"  transform=" translate(-502.77, -78.36)" d="M 559.878 130.0569 L 520.2211 26.9155 C 519.9414444009003 26.188200789074088 519.2427120352636 25.708279469208012 518.4635 25.7083 L 468.0016 25.7083 C 467.38769914832557 25.702911701420454 466.8097571346169 25.997293536618752 466.45314496633233 26.497024515125688 C 466.0965327980477 26.99675549363262 466.0060804860277 27.639014020516143 466.2108 28.2178 C 466.6995140536708 29.499824226322428 467.28871243545404 30.741250270273877 467.9729 31.93050000000001 Q 469.86769999999996 35.2832 471.99019999999996 38.4405 Q 474.11369999999994 41.6018 475.7818 43.8029 C 476.4885306450386 44.69173887534483 477.14685171841114 45.61801508567599 477.7539 46.57769999999999 L 445.67 130.0569 L 445.3027 131.01170000000002 L 478.8157 131.01170000000002 L 479.18309999999997 130.0569 L 483.2048 119.58260000000001 C 483.4842124585566 118.85486527301815 484.1831686326114 118.37455407314434 484.9627 118.37460000000002 L 520.5859 118.37460000000002 C 521.3654137025271 118.37461097219257 522.0643407570055 118.85490216157194 522.3438 119.58260000000001 L 526.3655 130.0569 L 526.7329 131.01170000000002 L 560.2459 131.01170000000002 Z M 494.8586 88.17 L 502.2721 68.5853 C 502.3507262429626 68.3777184666955 502.5498516245362 68.24066737070913 502.7718239268243 68.24135734778433 C 502.99379622911243 68.24204732485953 503.1920657537731 68.38033368025562 503.2694 68.58840000000001 L 510.5448 88.1731 C 510.6055440366828 88.33658559777406 510.5823965423475 88.51945346140323 510.4828328954815 88.66264724232546 C 510.3832692486155 88.8058410232477 510.21990578667146 88.89121573463196 510.0455 88.89120000000001 L 495.3567 88.89120000000001 C 495.18171557450967 88.89120356519916 495.01789269864724 88.80525341683622 494.9184507916144 88.66127127800452 C 494.8190088845816 88.5172891391728 494.79663593189326 88.33364596982676 494.8586 88.17 Z" stroke-linecap="round" />
</g>
		<g transform="matrix(1 0 0 1 -48.88 -22.98)" id="NX7FmNS3140RFp6fkxJwS"  >
<path style="stroke: none; stroke-width: 1; stroke-dasharray: none; stroke-linecap: butt; stroke-dashoffset: 0; stroke-linejoin: miter; stroke-miterlimit: 4; fill: rgb(231,29,54); fill-rule: nonzero; opacity: 1;" vector-effect="non-scaling-stroke"  transform=" translate(-619.38, -78.36)" d="M 639.4005 27.5913 L 639.4005 71.962 C 639.4005054078026 72.76462341821525 638.8917482857096 73.47902784871482 638.1332511124922 73.74149001688014 C 637.3747539392748 74.00395218504543 636.5332610468655 73.75677368350786 636.0372 73.1258 L 599.325 26.4275 C 598.9680601052011 25.973491938105308 598.4225200436791 25.70838895685763 597.845 25.708299999999998 L 569.405 25.708299999999998 C 568.3650868687125 25.708355226401128 567.5220999985336 26.551386867246105 567.5221 27.591299999999997 L 567.5221 128.1739 C 567.5220734774308 128.67329345459973 567.7204381634117 129.1522421279301 568.0735532851176 129.50537600342653 C 568.4266684068234 129.85850987892294 568.905606544696 130.0569000007043 569.405 130.0569 L 597.485 130.0569 C 597.9844107812306 130.05692652419378 598.4633746104479 129.8585481114557 598.8165113609518 129.5054113609518 C 599.1696481114557 129.15227461044788 599.3680265241939 128.67331078123064 599.368 128.1739 L 599.368 84.7768 C 599.3680047815418 83.97355603617282 599.8775455612152 83.25874903312793 600.6368677727659 82.99677452197575 C 601.3961899843166 82.73480001082359 602.2380969888161 82.98334267019366 602.7334000000001 83.61569999999999 L 639.1067 130.05689999999998 L 639.8543000000001 131.0117 L 669.3619000000001 131.0117 C 669.8612934553041 131.01170000070428 670.3402315931767 130.81330987892292 670.6933467148825 130.4601760034265 C 671.0464618365884 130.10704212793007 671.2448265225693 129.6280934545997 671.2448 129.12869999999998 L 671.2448 27.5913 C 671.2448000014665 26.55138686724611 670.4018131312876 25.70835522640113 669.3619000000001 25.7083 L 641.2835 25.7083 C 640.7840973496321 25.70829999999999 640.3051489316433 25.906686930408068 639.9520179310257 26.25981793102572 C 639.5988869304081 26.61294893164337 639.4005 27.09189734963213 639.4005 27.5913 Z" stroke-linecap="round" />
</g>
		<g transform="matrix(1 0 0 1 65.83 -22.98)" id="3PfFIYZmK00Z6-E2rI5Pi"  >
<path style="stroke: none; stroke-width: 1; stroke-dasharray: none; stroke-linecap: butt; stroke-dashoffset: 0; stroke-linejoin: miter; stroke-miterlimit: 4; fill: rgb(231,29,54); fill-rule: nonzero; opacity: 1;" vector-effect="non-scaling-stroke"  transform=" translate(-734.1, -78.36)" d="M 790.9631 39.2079 C 790.203612889941 36.97225184233873 789.2121415145604 34.822265168418284 788.0049 32.79309999999998 C 786.9288051847731 30.929395781385757 785.602475386346 29.221889161893728 784.0629 27.71820000000001 C 783.0065498870082 26.547567651011068 781.5405353346652 25.82791512079822 779.9683 25.708200000000005 L 676.0951 25.708200000000005 C 676.6168042990636 27.791846284261627 677.4335224849692 29.790270221712895 678.5205 31.64289999999999 Q 680.3412 34.9018 682.3122 37.867900000000006 Q 684.2810999999999 40.837900000000005 686.0265999999999 43.13270000000001 C 687.1887999999999 44.66270000000001 687.9234999999999 45.68770000000001 688.2266 46.19500000000001 L 688.2266 129.1286 C 688.2265734758062 129.62801078123064 688.4249518885443 130.10697461044788 688.7780886390482 130.4601113609518 C 689.1312253895521 130.8132481114557 689.6101892187694 131.0116265241938 690.1096 131.01160000000002 L 779.9685 131.01160000000002 C 780.9731513777543 130.9790124109562 781.9450558733948 130.64647660774625 782.7591 130.0568 C 783.2221057324325 129.74164380720742 783.6582584470561 129.38874140751466 784.0631 129.0017 C 785.6045538448878 127.49968883558829 786.9310957187047 125.79190919189641 788.0051 123.9268 C 789.2009625539619 121.92583378766133 790.1920408209761 119.80939824294427 790.9633 117.60959999999999 C 791.6713131502919 115.70885913625537 792.0555421845675 113.70283676728229 792.1 111.675 L 792.1 45.0477 C 792.0371737003981 43.0526691326925 791.6532867308945 41.080795507477276 790.9631 39.20789999999999 Z M 720.07 57.026 C 720.0699734772954 56.5906828493781 720.2428839505751 56.1731860813456 720.5506902832686 55.865360994839044 C 720.8584966159623 55.55753590833248 721.2759828485702 55.38459999919203 721.7113 55.384600000000006 L 757.9805 55.384600000000006 C 758.4854 55.384600000000006 758.9905 55.80230000000001 759.4972 56.6296 C 759.9656387867924 57.34193287643178 760.2280680857095 58.16988468274805 760.2555 59.022000000000006 L 760.2555 97.698 C 760.2288463914776 98.55024838505483 759.9663516384109 99.37840669606219 759.4972 100.09039999999999 C 758.9902000000001 100.92309999999999 758.4854 101.33539999999999 757.9805 101.33539999999999 L 721.7115 101.33539999999999 C 721.2761481972765 101.33545305044034 720.85861058077 101.1625405606857 720.5507609896381 100.85470972371705 C 720.2429113985061 100.5468788867484 720.0699734719517 100.12935180514752 720.07 99.694 Z" stroke-linecap="round" />
</g>
		<g transform="matrix(1 0 0 1 185.86 -22.98)" id="uKL7HRFZhDmLSU0R-O2AE"  >
<path style="stroke: none; stroke-width: 1; stroke-dasharray: none; stroke-linecap: butt; stroke-dashoffset: 0; stroke-linejoin: miter; stroke-miterlimit: 4; fill: rgb(231,29,54); fill-rule: nonzero; opacity: 1;" vector-effect="non-scaling-stroke"  transform=" translate(-854.12, -78.36)" d="M 911.2254 130.0569 L 871.5685 26.9155 C 871.288821038327 26.188219223295455 870.5901032146393 25.70830789150448 869.8109 25.7083 L 819.3489 25.7083 C 818.7350167455452 25.702944579567124 818.1571049981762 25.997340005719266 817.8005164128115 26.49706584196917 C 817.4439278274468 26.996791678219072 817.3534867360385 27.639030779855826 817.5581999999999 28.2178 C 818.0469193609543 29.499805112426188 818.6360828860079 30.741228165471924 819.3201999999999 31.930500000000002 Q 821.2150999999999 35.2832 823.3374999999999 38.4405 Q 825.4610999999999 41.6018 827.1291999999999 43.8029 C 827.8358936562948 44.69176669259164 828.4942132859767 45.61804087160962 829.1012999999998 46.57769999999999 L 797.0168999999999 130.0571 L 796.6494999999999 131.0119 L 830.1625999999999 131.0119 L 830.5298999999999 130.0571 L 834.5516999999999 119.58279999999999 C 834.831099359847 118.85509939284402 835.5300051790307 118.37479547341408 836.3094999999998 118.3748 L 871.9346999999998 118.3748 C 872.7143344342397 118.37478880230026 873.4133482460516 118.855231571818 873.6926999999998 119.58309999999999 L 877.7126999999998 130.0571 L 878.0799999999998 131.0119 L 911.5929999999998 131.0119 Z M 846.206 88.17 L 853.6194 68.5853 C 853.6979891246234 68.37764870709275 853.8971498344652 68.24053397053345 854.119174233482 68.24122404035192 C 854.3411986324987 68.24191411017041 854.5395031753417 68.38026420093396 854.6168 68.58840000000001 L 861.8922 88.1731 C 861.9529440366828 88.33658559777405 861.9297965423475 88.51945346140322 861.8302328954815 88.66264724232543 C 861.7306692486155 88.80584102324767 861.5673057866715 88.89121573463194 861.3929 88.89120000000001 L 846.7041 88.89120000000001 C 846.5291155745098 88.89120356519919 846.3652926986473 88.80525341683625 846.2658507916144 88.66127127800453 C 846.1664088845816 88.51728913917282 846.1440359318932 88.33364596982676 846.206 88.17 Z" stroke-linecap="round" />
</g>
		<g transform="matrix(1 0 0 1 279.87 -23.45)" id="9oP1Yib0Jo8MvanGRCcfw"  >
<path style="stroke: none; stroke-width: 1; stroke-dasharray: none; stroke-linecap: butt; stroke-dashoffset: 0; stroke-linejoin: miter; stroke-miterlimit: 4; fill: rgb(231,29,54); fill-rule: nonzero; opacity: 1;" vector-effect="non-scaling-stroke"  transform=" translate(-948.14, -77.88)" d="M 896.1252 27.5913 L 896.1252 53.5013 C 896.1251999992957 54.00069345530403 896.323590121077 54.47963159317656 896.6767239965734 54.83274671488246 C 897.0298578720699 55.18586183658836 897.5088065454003 55.3842265225692 898.0082 55.3842 L 930.331 55.3842 C 931.3709293090144 55.384255222861206 932.2139447771389 56.22727069098558 932.214 57.2672 L 932.214 128.1735 C 932.2139734774308 128.67289345459972 932.4123381634117 129.15184212793008 932.7654532851176 129.50497600342652 C 933.1185684068234 129.85810987892293 933.597506544696 130.0565000007043 934.0969 130.0565 L 962.1769 130.0565 C 962.6763107812307 130.05652652419377 963.1552746104479 129.85814811145568 963.5084113609519 129.50501136095178 C 963.8615481114557 129.15187461044786 964.0599265241939 128.67291078123063 964.0599000000001 128.1735 L 964.0599000000001 57.2676 C 964.0599552228613 56.227670690985576 964.9029706909857 55.384655222861205 965.9429000000001 55.3846 L 998.2657000000002 55.3846 C 998.7650934545999 55.3846265225692 999.2440421279302 55.18626183658836 999.5971760034267 54.83314671488246 C 999.9503098789231 54.48003159317656 1000.1487000007045 54.00109345530403 1000.1487000000002 53.5017 L 1000.1487000000002 27.5917 C 1000.1487000000002 27.09229734963213 999.9503130695921 26.61334893164337 999.5971820689745 26.260217931025718 C 999.2440510683568 25.907086930408067 998.765102650368 25.70869999999999 998.2657000000002 25.7087 L 898.0082 25.7087 C 896.9684040057596 25.708699976539467 896.125420880721 26.551504029220133 896.1252 27.5913 Z" stroke-linecap="round" />
</g>
		<g transform="matrix(1 0 0 1 392.01 -22.98)" id="HA9Lxc320_2sq50l0tjaN"  >
<path style="stroke: none; stroke-width: 1; stroke-dasharray: none; stroke-linecap: butt; stroke-dashoffset: 0; stroke-linejoin: miter; stroke-miterlimit: 4; fill: rgb(231,29,54); fill-rule: nonzero; opacity: 1;" vector-effect="non-scaling-stroke"  transform=" translate(-1060.27, -78.36)" d="M 1111.0725 39.0153 C 1110.328573570452 36.81750145172144 1109.363354184238 34.70094098773486 1108.1917 32.69819999999999 C 1107.1408719549954 30.866265574019703 1105.8393328719212 29.19007414581898 1104.3248 27.718200000000007 C 1103.2684498870083 26.54756765101109 1101.8024353346652 25.82791512079824 1100.2302000000002 25.708199999999998 L 1020.3167000000002 25.708199999999998 C 1018.7440929716421 25.826550592786333 1017.2775979254245 26.546438992849197 1016.2221000000002 27.718199999999996 C 1014.7050088059526 29.187782975632757 1013.4031745494824 30.86435454387133 1012.3552000000002 32.6982 C 1011.1817268285479 34.699996734562056 1010.216420811327 36.8167471654792 1009.4744000000002 39.015299999999996 C 1008.7837400313773 40.88819855729004 1008.3992822449854 42.86012326528979 1008.3358000000002 44.8553 L 1008.3358000000002 111.8653 C 1008.3806805965556 113.89417502122272 1008.7655534406234 115.90115203190969 1009.4744000000002 117.8027 C 1010.2284222609669 119.96620020608394 1011.1933302117109 122.05032501235794 1012.3552000000002 124.025 C 1013.4018135821034 125.85891581831288 1014.7038036393144 127.5347452715572 1016.2221000000002 129.00220000000002 C 1016.6257450090724 129.38970741323172 1017.061207295604 129.74264661934598 1017.5239000000001 130.05730000000003 C 1018.3385883362031 130.64733647246604 1019.3113033253796 130.97988741476976 1020.3167000000002 131.01210000000003 L 1100.23 131.01210000000003 C 1101.2346513777543 130.9795124109562 1102.206555873395 130.64697660774627 1103.0206 130.05730000000003 C 1103.4836057324326 129.74214380720747 1103.9197584470562 129.38924140751467 1104.3246000000001 129.00220000000002 C 1105.8403392429602 127.532451968073 1107.1420321947649 125.85700492788021 1108.1915000000001 124.02500000000003 C 1109.3515593119582 122.0493767150341 1110.3163833227186 119.96543321248096 1111.0723 117.80270000000002 C 1111.7804815168317 115.90104668375447 1112.1646127707236 113.8940589093297 1112.2087000000001 111.86530000000002 L 1112.2087000000001 44.855300000000014 C 1112.1461196576615 42.860240117658954 1111.7624689461477 40.88829842144244 1111.0725 39.0153 Z M 1040.1817 58.832100000000004 C 1040.22403221209 58.053085936138075 1040.457946906169 57.29655566637453 1040.8627000000001 56.6296 C 1041.3182000000002 55.8023 1041.7972000000002 55.384600000000006 1042.3042 55.384600000000006 L 1078.2426 55.384600000000006 Q 1078.9999 55.384600000000006 1079.6841 56.534600000000005 C 1080.115902583279 57.22417454259131 1080.35135898563 58.01850279334193 1080.3651 58.83200000000001 L 1080.3651 97.8906 C 1080.3506194126737 98.70398334378541 1080.1152204289228 99.49811788896785 1079.6841 100.188 Q 1079.001 101.3354 1078.2426 101.3354 L 1042.3042 101.3354 C 1041.6180014041925 101.28185037791191 1041.0257456794477 100.83377295566996 1040.7876 100.188 C 1040.3990115629138 99.48398605128557 1040.190846938068 98.6946851615008 1040.1817 97.8906 Z" stroke-linecap="round" />
</g>
		<g transform="matrix(1 0 0 1 510.25 -22.98)" id="ftKfulaOHQj78bPQb8cwC"  >
<path style="stroke: none; stroke-width: 1; stroke-dasharray: none; stroke-linecap: butt; stroke-dashoffset: 0; stroke-linejoin: miter; stroke-miterlimit: 4; fill: rgb(231,29,54); fill-rule: nonzero; opacity: 1;" vector-effect="non-scaling-stroke"  transform=" translate(-1178.52, -78.36)" d="M 1231.8588 130.0569 L 1208.696 102.29280000000001 L 1210.2126999999998 102.29280000000001 C 1213.360566051372 102.29039008085837 1216.4775493234297 101.67210952816308 1219.388 100.47280000000002 C 1221.6513738111878 99.48389345640626 1223.5753227176378 97.85336935607177 1224.922 95.78280000000002 C 1226.3400312055348 93.44759581745986 1227.245125278801 90.83747385737902 1227.5772 88.12570000000002 C 1228.06313054891 84.57283181248522 1228.290727647661 80.98939737413545 1228.2582 77.40360000000003 L 1228.2582 44.8551 C 1228.195598933052 42.860024266239606 1227.8118792841872 40.888075349159195 1227.1218 39.01509999999999 C 1226.3779159402927 36.81728467022395 1225.4126946358897 34.70071999997808 1224.241 32.69799999999999 C 1223.190138225076 30.86608818352235 1221.8886026116888 29.189901223769635 1220.3741 27.718 C 1219.317762477293 26.54735096860496 1217.8517408320486 25.827694956554705 1216.2795 25.708000000000006 L 1126.268 25.708000000000006 C 1125.2280868687126 25.708055226401072 1124.3850999985334 26.551086867246067 1124.3851 27.591000000000005 L 1124.3851 128.1739 C 1124.3850734774308 128.67329345459973 1124.5834381634115 129.15224212793015 1124.9365532851175 129.50537600342656 C 1125.2896684068235 129.85850987892297 1125.768606544696 130.05690000070433 1126.268 130.0569 L 1154.3459 130.0569 C 1154.845293455304 130.05690000070433 1155.3242315931766 129.85850987892297 1155.6773467148826 129.50537600342656 C 1156.0304618365885 129.15224212793015 1156.2288265225693 128.67329345459973 1156.2288 128.1739 L 1156.2288 57.2676 C 1156.2288552228613 56.227670690985576 1157.0718706909856 55.384655222861205 1158.1118000000001 55.3846 L 1194.2918000000002 55.3846 Q 1195.0492000000002 55.3846 1195.7312000000002 56.5346 C 1196.164522195546 57.22360669900218 1196.4007752636683 58.018172353670884 1196.4143000000001 58.832 L 1196.4143000000001 71.084 Q 1196.4143000000001 74.5301 1194.2918000000002 74.53150000000001 L 1165.3918 74.53150000000001 C 1164.8924238712812 74.5315 1164.4135008886838 74.72987639472403 1164.0603886417039 75.08298864170384 C 1163.7072763947242 75.43610088868364 1163.5089 75.91502387128112 1163.5089 76.41440000000001 L 1163.5089 90.9173 C 1163.5088826081133 92.57580770626058 1164.0959164185756 94.18078953094289 1165.166 95.4479 L 1194.3944999999999 130.0569 L 1195.2000999999998 131.01170000000002 L 1232.6553 131.01170000000002 Z" stroke-linecap="round" />
</g>
		<g transform="matrix(1 0 0 1 616.87 -10.24)" id="PU1IFjjqeI9Suv7v2bXG_"  >
<path style="stroke: none; stroke-width: 1; stroke-dasharray: none; stroke-linecap: butt; stroke-dashoffset: 0; stroke-linejoin: miter; stroke-miterlimit: 4; fill: rgb(231,29,54); fill-rule: nonzero; opacity: 1;" vector-effect="non-scaling-stroke"  transform=" translate(-1285.14, -91.09)" d="M 1299.4323 26.5986 L 1285.8223 48.534800000000004 C 1285.4781055051985 49.089587062765375 1284.8710807693192 49.426475237360904 1284.2181975477317 49.42504897185795 C 1283.5653143261445 49.423622706355 1282.9597672849359 49.08408559051189 1282.618 48.527800000000006 L 1269.148 26.605500000000006 C 1268.8054692538421 26.047976271211247 1268.1980393763886 25.70827292018501 1267.5437 25.708300000000005 L 1235.6323 25.708300000000005 C 1234.9328682858643 25.708338105307327 1234.2910862286665 26.09605280953466 1233.9656484168402 26.715161002683924 C 1233.6402106050139 27.334269195833187 1233.684744874629 28.082750057074886 1234.0813 28.658900000000006 L 1267.9598 77.8789 C 1268.1759634089835 78.19295946287751 1268.2916992385367 78.56523897969277 1268.2917 78.9465 L 1268.2917 156.47539999999998 C 1269.9618145089482 156.29412058192682 1271.5693790645107 155.7378005551922 1272.9943 154.84799999999998 C 1275.2511720233883 153.61350097824965 1277.428743708525 152.2392595345639 1279.5143 150.73329999999999 Q 1283.0009 148.23919999999998 1286.5649 145.1811 Q 1290.1256 142.11329999999998 1293.0849 139.34109999999998 C 1294.8160851166203 137.73766708449455 1296.4611229663499 136.0436606351637 1298.0131000000001 134.26619999999997 C 1298.9493616852028 133.3484729415 1299.6743827458322 132.23773630860782 1300.1377000000002 131.01129999999998 L 1300.1377000000002 79.1369 C 1300.1377268976241 78.75547362852076 1300.2535701417473 78.38304561911876 1300.4699000000003 78.0689 L 1336.49 25.768 L 1336.5308 25.708000000000002 L 1301.0321 25.708000000000002 C 1300.3806725366153 25.708120559963856 1299.7755899507301 26.04496676010722 1299.4323 26.5986 Z" stroke-linecap="round" />
</g>
		<g transform="matrix(1 0 0 1 -630.19 45.24)" id="F90UKchLdh5TTxJS7rBAo"  >
<path style="stroke: none; stroke-width: 1; stroke-dasharray: none; stroke-linecap: butt; stroke-dashoffset: 0; stroke-linejoin: miter; stroke-miterlimit: 4; fill: rgb(231,29,54); fill-rule: nonzero; opacity: 1;" vector-effect="non-scaling-stroke"  transform=" translate(-38.07, -146.58)" d="M 40.5113 135.3833 C 37.406 136.77689999999998 35.0952 137.8809 34.0843 138.47809999999998 C 27.77097986325658 136.6416645365132 21.315714267018905 135.33408098155346 14.785399999999992 134.56889999999999 C 19.3709 138.0256 34.644 149.73469999999998 42.3165 156.03279999999998 C 42.3165 156.03279999999998 52.8236 158.27689999999998 54.7371 158.5845 C 56.89377949991022 157.48322491554 59.105180727525145 156.49257350530033 61.36269999999993 155.6164 C 54.016838427302105 149.29183606713536 47.05405232289175 142.53551526713412 40.51130000000001 135.3833 Z" stroke-linecap="round" />
</g>
		<g transform="matrix(1 0 0 1 -501.87 45.24)" id="0vcTHjbTXEX_U7ymqsKr-"  >
<path style="stroke: none; stroke-width: 1; stroke-dasharray: none; stroke-linecap: butt; stroke-dashoffset: 0; stroke-linejoin: miter; stroke-miterlimit: 4; fill: rgb(231,29,54); fill-rule: nonzero; opacity: 1;" vector-effect="non-scaling-stroke"  transform=" translate(-166.4, -146.58)" d="M 170.314 138.4781 C 169.2678 137.89890000000003 167.0822 136.83120000000002 164.04999999999998 135.4738 C 157.53616150188594 142.55950495297617 150.61616965419572 149.26079500765135 143.325 155.54380000000003 C 143.26889882522954 155.57602034255473 143.21977665766101 155.61909147494873 143.1805 155.6705 C 145.6539 156.6658 147.8743 157.643 149.6616 158.5841 C 151.5753 158.2765 162.1003 156.0324 162.1003 156.0324 C 169.7361 149.7343 185.0283 138.02519999999998 189.61360000000002 134.5685 C 183.0832300163592 135.33559418315647 176.62775668346538 136.64314528952687 170.3136 138.4777 Z" stroke-linecap="round" />
</g>
		<g transform="matrix(1 0 0 1 -566.09 -93.44)" id="vTv5xENixF20SHveKElp3"  >
<path style="stroke: none; stroke-width: 1; stroke-dasharray: none; stroke-linecap: butt; stroke-dashoffset: 0; stroke-linejoin: miter; stroke-miterlimit: 4; fill: rgb(231,29,54); fill-rule: nonzero; opacity: 1;" vector-effect="non-scaling-stroke"  transform=" translate(-102.18, -7.9)" d="M 110.8286 11.7074 L 93.5156 11.7074 C 93.3976111199087 11.717084360385625 93.28871423867864 11.643558183707766 93.2536 11.5305 C 93.24230375167669 11.49409306404338 93.23929696378858 11.455619846293262 93.24480000000001 11.4179 L 94.47240000000001 5.435899999999999 C 94.48449431565422 5.348065020378241 94.54878521354838 5.276410756099647 94.63480000000001 5.254899999999999 C 97.08155769538554 4.5073918550136485 99.6228388354475 4.114495640165276 102.18109999999999 4.0882000000000005 C 104.72761467806178 4.112694641046796 107.25717517367772 4.505669105791814 109.69110000000002 5.254899999999994 C 109.7817397110941 5.274314531243876 109.8524860463588 5.3452175582810435 109.87170000000002 5.435899999999999 L 111.11720000000003 11.4179 C 111.12004189723358 11.456606170205001 111.11444635315223 11.495467906233333 111.10080000000002 11.531799999999999 C 111.058860036361 11.644161136401266 110.94805317205879 11.715591699438955 110.82840000000002 11.707399999999998 Z" stroke-linecap="round" />
</g>
		<g transform="matrix(1 0 0 1 -649.26 -34.98)" id="_pp2JOBF5_23LlF-RAvhH"  >
<path style="stroke: none; stroke-width: 1; stroke-dasharray: none; stroke-linecap: butt; stroke-dashoffset: 0; stroke-linejoin: miter; stroke-miterlimit: 4; fill: rgb(231,29,54); fill-rule: nonzero; opacity: 1;" vector-effect="non-scaling-stroke"  transform=" translate(-19.01, -66.36)" d="M 0 18.333 C 0.1805 32.702999999999996 5.1452 109.74419999999999 11.0847 122.5753 C 21.0139 126.7922 32.2972 131.3889 32.2972 131.3889 C 33.94 130.64690000000002 35.907799999999995 129.8508 38.020199999999996 129.0001 L 38.020199999999996 128.7286 C 36.2148 123.6794 24.895399999999995 73.11449999999999 25.960199999999993 1.3212000000000046 C 21.017836207790204 1.537883348630524 16.114196500982928 2.2964941307474604 11.337399999999938 3.583400000000026 L 6.68 10.0081 C 4.597768693835462 12.895936668664092 2.368147238715313 15.67458571832423 7.105427357601002e-15 18.33299999999999 Z" stroke-linecap="round" />
</g>
		<g transform="matrix(1 0 0 1 -482.92 -35.05)" id="DsagcWYVQnEqwSwkA_Op_"  >
<path style="stroke: none; stroke-width: 1; stroke-dasharray: none; stroke-linecap: butt; stroke-dashoffset: 0; stroke-linejoin: miter; stroke-miterlimit: 4; fill: rgb(231,29,54); fill-rule: nonzero; opacity: 1;" vector-effect="non-scaling-stroke"  transform=" translate(-185.34, -66.28)" d="M 166.3432 128.9458 C 168.4557 129.7782 170.3871 130.5745 172.0296 131.3165 C 172.0296 131.3165 183.31269999999998 126.71969999999999 193.26059999999998 122.5029 C 199.1812 109.67179999999999 204.09199999999998 32.6301 204.34449999999998 18.260599999999997 C 201.493 15.003099999999996 199.5067 12.378799999999996 197.7198 9.935699999999997 L 193.0613 3.511 C 188.28445032452873 2.224184809529195 183.38078752800612 1.465575643201484 178.43839999999997 1.248799999999993 C 179.50300000000001 72.5716 168.2929 122.9555 166.4146 128.5477 C 166.4133188622121 128.683467448026 166.389181292727 128.81804961065936 166.3432 128.9458 Z" stroke-linecap="round" />
</g>
		<g transform="matrix(1 0 0 1 -566.07 -40.8)" id="bZOCOPsE7oet7d3MXtN61"  >
<path style="stroke: none; stroke-width: 1; stroke-dasharray: none; stroke-linecap: butt; stroke-dashoffset: 0; stroke-linejoin: miter; stroke-miterlimit: 4; fill: rgb(231,29,54); fill-rule: nonzero; opacity: 1;" vector-effect="non-scaling-stroke"  transform=" translate(-102.2, -60.54)" d="M 148.2712 0 C 145.6174 0.1448 138.10729999999998 0.5972 135.47119999999998 0.9953 L 130.9578 6.6961 C 128.39419999999998 9.9175 125.3433 13.6637 123.61009999999999 15.618300000000001 C 118.1942 15.346800000000002 101.8201 15.419200000000002 101.8201 15.419200000000002 C 101.8201 15.419200000000002 86.27629999999999 15.419200000000002 80.78819999999999 15.618300000000001 C 78.98279999999998 13.663700000000002 75.98599999999999 9.9175 73.42239999999998 6.696100000000001 L 68.9091 0.9953 C 66.2914 0.5972 58.7633 0.1448 56.1275 0 C 52.7155 18.0977 50.549 69.4225 54.0333 111.6624 C 54.0333 112.2055 54.6652 116.65740000000001 55.2971 120.58460000000001 C 55.32673566880759 120.75236015970248 55.37513971311919 120.9162563208296 55.4414 121.07320000000001 C 55.4414 121.07320000000001 79.7772 110.48610000000002 102.2175 110.48610000000002 C 124.65780000000001 110.48610000000002 148.9752 121.07320000000001 148.9752 121.07320000000001 C 149.0258788108537 120.95572325838145 149.06811918686097 120.83478344764546 149.1016 120.71130000000001 C 149.7335 116.74790000000002 150.3473 112.00630000000001 150.3834 111.6624 C 153.85 69.4225 151.6472 18.1339 148.2712 0 Z M 124.802 79.34 C 124.80239844243354 79.50785004264513 124.73599939321511 79.66896190209663 124.61745194241475 79.787790760044 C 124.49890449161437 79.9066196179914 124.33795051555514 79.97340047291065 124.1701 79.9734 L 114.7282 79.9734 C 114.37886362464008 79.97290327843604 114.09605786787579 79.68933644871544 114.0965 79.34 L 114.0965 65.0971 C 114.10525691475588 64.79479876021153 113.89849271063291 64.52871341066256 113.6033966294403 64.46252409129424 C 113.30830054824767 64.39633477192591 113.00769712536616 64.54861882067404 112.88650000000001 64.8257 L 106.13450000000002 79.6478 L 105.99000000000002 79.9734 L 98.4623 79.9734 L 98.3179 79.6478 L 91.5661 64.8257 C 91.4444046450303 64.5493117963873 91.144152473133 64.39766404710258 90.84948020206258 64.46375830691127 C 90.55480793099217 64.52985256671995 90.34808956001388 64.79521255181992 90.35610000000001 65.0971 L 90.35610000000001 79.9734 L 80.19210000000001 88.1534 C 80.10079316391094 88.22021271217469 79.98007799406153 88.23121129088668 79.8782 88.182 C 79.77608402053328 88.13280729362286 79.70938166269855 88.03135050842064 79.7047 87.9181 L 79.7047 45.1355 C 79.70436838675955 44.78613115823839 79.9872313539859 44.50259673278948 80.3366 44.5021 L 93.6241 44.5021 C 93.86951591548491 44.5040160764638 94.09292827948563 44.643996918797356 94.2017 44.864 L 101.71170000000001 61.151799999999994 C 101.81680582293798 61.37033767196618 102.03785062250829 61.509307445256724 102.28035 61.509307445256724 C 102.52284937749172 61.509307445256724 102.74389417706203 61.37033767196618 102.849 61.151799999999994 L 110.35900000000001 44.86399999999999 C 110.46764606320879 44.64388333947871 110.69113668978034 44.503853461091865 110.93660000000001 44.50209999999999 L 124.22370000000001 44.50209999999999 C 124.3915014936592 44.50225900937148 124.55236268810664 44.569090988672045 124.6708755695188 44.68788519517063 C 124.78938845093094 44.806679401669214 124.85583884436994 44.967698600984356 124.85560000000001 45.13549999999999 Z" stroke-linecap="round" />
</g>
		<g transform="matrix(1 0 0 1 -566.03 58.87)" id="RLomd61_v25X0cd8s5w4z"  >
<path style="stroke: none; stroke-width: 1; stroke-dasharray: none; stroke-linecap: butt; stroke-dashoffset: 0; stroke-linejoin: miter; stroke-miterlimit: 4; fill: rgb(231,29,54); fill-rule: nonzero; opacity: 1;" vector-effect="non-scaling-stroke"  transform=" translate(-102.24, -160.2)" d="M 101.8924 117.738 C 88.2624 117.738 70.62429999999999 123.0044 55.838699999999996 128.778 C 56.3261 129.7553 65.08189999999999 146.188 70.53399999999999 153.91559999999998 L 70.624 154.04229999999998 C 75.44399999999999 152.23229999999998 88.42399999999999 147.5272 88.42399999999999 147.5272 L 89.1462 147.5272 L 93.8762 200.56529999999998 C 93.881284184412 200.61505327551558 93.89682357071456 200.6631708488911 93.92179999999999 200.70649999999998 C 93.9462831037801 200.75031818967915 93.9799939158726 200.78829403366592 94.02059999999999 200.81779999999998 C 94.58059999999999 201.2163 96.98119999999999 202.62779999999998 102.2528 202.62779999999998 C 105.115321534127 202.84864060633112 107.9792960528268 202.2189586328062 110.48519999999999 200.81779999999998 C 110.52848552517644 200.79119593753137 110.56430521299129 200.75403430175803 110.5893 200.70979999999997 C 110.614135823328 200.66558224678226 110.62786245617922 200.61599478560723 110.6293 200.56529999999998 L 115.2693 147.5272 L 116.0093 147.5272 C 116.0093 147.5272 129.0978 152.35909999999998 134.0624 154.1148 L 134.3153 153.7528 C 139.7311 146.0251 148.1981 129.9728 148.6314 129.1039 C 133.4677 123.2759 115.6491 117.738 101.8924 117.738 Z M 115.34859999999999 139.4948 C 111.99059958481375 135.76413106159276 107.20764337401906 133.633062551847 102.18827549738967 133.63115586663912 C 97.16890762076028 133.62924918143125 92.38433375128855 135.75668331558856 89.02349999999997 139.48480000000004 Q 88.86559999999999 137.0248 88.71089999999998 134.5692 C 92.07657427047403 130.62851258839927 96.99904719737458 128.3592255434357 102.18139999999998 128.3592255434357 C 107.36375280262538 128.3592255434357 112.28622572952592 130.62851258839927 115.65189999999998 134.5692 Q 115.5021 137.0294 115.3486 139.4948 Z" stroke-linecap="round" />
</g>
</g>
</g>
</svg>